<svg xmlns="http://www.w3.org/2000/svg" class="railroad" width="437" height="900" viewBox="0 0 437 900"><style>svg.railroad{background:#fff;font-family:monospace;font-size:13px}.rr-line{stroke:#334;stroke-width:2;fill:none}.rr-cap{fill:#334}.rr-term{fill:#e8f0ff;stroke:#334;stroke-width:2}.rr-nonterm{fill:#fff7e8;stroke:#334;stroke-width:2}.rr-label{fill:#111;text-anchor:middle;dominant-baseline:middle}.rr-comment{fill:#666;font-style:italic;text-anchor:middle;dominant-baseline:middle}.rr-title{fill:#113;font-weight:bold;font-size:15px}.rr-legend{fill:#333;font-size:12px}.rr-legend-tok{fill:#113;font-weight:bold}a:hover .rr-nonterm{fill:#ffe6b3;cursor:pointer}</style><g><g id="val"><text class="rr-title" x="16" y="31">val</text><circle class="rr-cap" cx="169" cy="42" r="3"/><path class="rr-line" d="M169 42V56"/><path class="rr-line" d="M169 56V74"/><path class="rr-line" d="M112 74H226"/><path class="rr-line" d="M112 208H226"/><path class="rr-line" d="M169 208V226"/><path class="rr-line" d="M112 74V92"/><path class="rr-line" d="M112 92V110"/><path class="rr-line" d="M38 110H186"/><path class="rr-line" d="M38 172H186"/><path class="rr-line" d="M112 172V190"/><path class="rr-line" d="M38 110V128"/><a href="#map"><rect class="rr-nonterm" x="16" y="128" width="44" height="26" rx="4" ry="4"/><text class="rr-label" x="38" y="141">map</text></a><path class="rr-line" d="M38 154V172"/><path class="rr-line" d="M112 110V128"/><a href="#list"><rect class="rr-nonterm" x="86" y="128" width="52" height="26" rx="4" ry="4"/><text class="rr-label" x="112" y="141">list</text></a><path class="rr-line" d="M112 154V172"/><path class="rr-line" d="M186 110V128"/><rect class="rr-term" x="164" y="128" width="44" height="26" rx="13" ry="13"/><text class="rr-label" x="186" y="141">VAL</text><path class="rr-line" d="M186 154V172"/><path class="rr-line" d="M112 190V208"/><path class="rr-line" d="M226 74V92"/><path class="rr-line" d="M226 92V104"/><path class="rr-line" d="M226 104V208"/><path class="rr-line" d="M169 226V240"/><circle class="rr-cap" cx="169" cy="240" r="3"/></g><g id="map"><text class="rr-title" x="16" y="289">map</text><circle class="rr-cap" cx="64" cy="300" r="3"/><path class="rr-line" d="M64 300V314"/><rect class="rr-term" x="49" y="314" width="30" height="26" rx="13" ry="13"/><text class="rr-label" x="64" y="327">{</text><path class="rr-line" d="M64 340V358"/><path class="rr-line" d="M64 358V376"/><path class="rr-line" d="M42 376H86"/><path class="rr-line" d="M42 438H86"/><path class="rr-line" d="M64 438V456"/><path class="rr-line" d="M42 376V394"/><a href="#pair"><rect class="rr-nonterm" x="16" y="394" width="52" height="26" rx="4" ry="4"/><text class="rr-label" x="42" y="407">pair</text></a><path class="rr-line" d="M42 420V438"/><path class="rr-line" d="M86 376V394"/><path class="rr-line" d="M86 394V406"/><path class="rr-line" d="M86 406V438"/><path class="rr-line" d="M64 456V474"/><rect class="rr-term" x="49" y="474" width="30" height="26" rx="13" ry="13"/><text class="rr-label" x="64" y="487">}</text><path class="rr-line" d="M64 500V514"/><circle class="rr-cap" cx="64" cy="514" r="3"/></g><g id="list"><text class="rr-title" x="16" y="563">list</text><circle class="rr-cap" cx="64" cy="574" r="3"/><path class="rr-line" d="M64 574V588"/><rect class="rr-term" x="49" y="588" width="30" height="26" rx="13" ry="13"/><text class="rr-label" x="64" y="601">[</text><path class="rr-line" d="M64 614V632"/><path class="rr-line" d="M64 632V650"/><path class="rr-line" d="M42 650H86"/><path class="rr-line" d="M42 712H86"/><path class="rr-line" d="M64 712V730"/><path class="rr-line" d="M42 650V668"/><a href="#elem"><rect class="rr-nonterm" x="16" y="668" width="52" height="26" rx="4" ry="4"/><text class="rr-label" x="42" y="681">elem</text></a><path class="rr-line" d="M42 694V712"/><path class="rr-line" d="M86 650V668"/><path class="rr-line" d="M86 668V680"/><path class="rr-line" d="M86 680V712"/><path class="rr-line" d="M64 730V748"/><rect class="rr-term" x="49" y="748" width="30" height="26" rx="13" ry="13"/><text class="rr-label" x="64" y="761">]</text><path class="rr-line" d="M64 774V788"/><circle class="rr-cap" cx="64" cy="788" r="3"/></g><g id="pair"><text class="rr-title" x="282" y="31">pair</text><circle class="rr-cap" cx="304" cy="42" r="3"/><path class="rr-line" d="M304 42V56"/><path class="rr-line" d="M304 56V74"/><rect class="rr-term" x="282" y="74" width="44" height="26" rx="13" ry="13"/><text class="rr-label" x="304" y="87">KEY</text><path class="rr-line" d="M304 100V118"/><rect class="rr-term" x="289" y="118" width="30" height="26" rx="13" ry="13"/><text class="rr-label" x="304" y="131">:</text><path class="rr-line" d="M304 144V162"/><a href="#val"><rect class="rr-nonterm" x="282" y="162" width="44" height="26" rx="4" ry="4"/><text class="rr-label" x="304" y="175">val</text></a><path class="rr-line" d="M304 188V206"/><path class="rr-line" d="M304 197H351"/><path class="rr-line" d="M304 65H351"/><path class="rr-line" d="M351 144V197"/><path class="rr-line" d="M351 65V118"/><rect class="rr-term" x="336" y="118" width="30" height="26" rx="13" ry="13"/><text class="rr-label" x="351" y="131">,</text><path class="rr-line" d="M304 206V220"/><circle class="rr-cap" cx="304" cy="220" r="3"/></g><g id="elem"><text class="rr-title" x="282" y="269">elem</text><circle class="rr-cap" cx="304" cy="280" r="3"/><path class="rr-line" d="M304 280V294"/><path class="rr-line" d="M304 294V312"/><a href="#val"><rect class="rr-nonterm" x="282" y="312" width="44" height="26" rx="4" ry="4"/><text class="rr-label" x="304" y="325">val</text></a><path class="rr-line" d="M304 338V356"/><path class="rr-line" d="M304 347H351"/><path class="rr-line" d="M304 303H351"/><path class="rr-line" d="M351 338V347"/><path class="rr-line" d="M351 303V312"/><rect class="rr-term" x="336" y="312" width="30" height="26" rx="13" ry="13"/><text class="rr-label" x="351" y="325">,</text><path class="rr-line" d="M304 356V370"/><circle class="rr-cap" cx="304" cy="370" r="3"/></g><text class="rr-title" x="16" y="837">Tokens</text><text class="rr-legend" x="16" y="859"><tspan class="rr-legend-tok">KEY</tspan>  —  map key: bare text, number, string, or keyword</text><text class="rr-legend" x="16" y="877"><tspan class="rr-legend-tok">VAL</tspan>  —  value: bare text, number, string, or keyword</text></g></svg>